<?xml version="1.0" ?><svg height="256px" id="SVGRoot" version="1.1" viewBox="0 0 256 256" width="256px" xmlns="http://www.w3.org/2000/svg" xmlnsCc="http://creativecommons.org/ns#" xmlnsDc="http://purl.org/dc/elements/1.1/" xmlnsInkscape="http://www.inkscape.org/namespaces/inkscape" xmlnsRdf="http://www.w3.org/1999/02/22-rdf-syntax-ns#" xmlnsSodipodi="http://sodipodi.sourceforge.net/DTD/sodipodi-0.dtd" xmlnsSvg="http://www.w3.org/2000/svg"><defs id="defs5435"/><g id="layer1"><g id="g12886" transform="translate(0,-4.864361)"><g id="g12823" transform="translate(5.7156761,-0.94946261)"><g id="g6074" style="stroke-width:20;stroke-miterlimit:4;stroke-dasharray:none" transform="translate(5,-14.999998)"><path d="M 128.25,41.39892 A 93.851662,93.851662 0 0 0 75.40628,57.803976 58.023152,59.006585 0 0 1 91.702181,55.391986 58.023152,59.006585 0 0 1 149.72552,114.39773 58.023152,59.006585 0 0 1 91.702181,173.40522 58.023152,59.006585 0 0 1 34.863713,125.96472 93.851662,93.851662 0 0 0 34.39892,135.25 93.851662,93.851662 0 0 0 128.25,229.10108 93.851662,93.851662 0 0 0 222.10108,135.25 93.851662,93.851662 0 0 0 128.25,41.39892 Z" id="path4347" style="color:#000000;display:inline;overflow:visible;visibility:visible;opacity:1;fill:#e3edf5;fill-opacity:1;stroke:#7f7f7f;stroke-width:20;stroke-linecap:round;stroke-linejoin:round;stroke-miterlimit:4;stroke-dasharray:none;stroke-dashoffset:0;stroke-opacity:1;marker:none;enable-background:accumulate"/></g><path d="M 99.9,79.743242 A 40.208108,40.208108 0 0 0 60.493455,111.96281 c -13.924496,6.96865 -23.447509,21.34193 -23.447509,38.02908 0,1.12659 0.05744,2.23945 0.142621,3.34346 -12.293534,7.43646 -20.477756,20.928 -20.477756,36.40249 0,23.55548 18.963438,42.51892 42.518919,42.51892 l 115.54054,0 c 23.55548,0 42.51892,-18.96344 42.51892,-42.51892 0,-20.39369 -14.21858,-37.33545 -33.32081,-41.51877 -0.92406,-22.72618 -19.51275,-40.7461 -42.47378,-40.7461 l -3.4247,0 A 40.208108,40.208108 0 0 0 99.9,79.743242 Z" id="rect9844" style="color:#000000;display:inline;overflow:visible;visibility:visible;opacity:1;fill:#edfafc;fill-opacity:1;stroke:#b3ddf6;stroke-width:18.48648643;stroke-linecap:round;stroke-linejoin:round;stroke-miterlimit:4;stroke-dasharray:none;stroke-dashoffset:0;stroke-opacity:1;marker:none;enable-background:accumulate"/></g><path d="m 92.943177,171.42099 -13.076364,35.0489 a 14.072974,14.072974 0 0 0 -0.660212,1.76895 l -0.323529,0.86713 0.102262,-6e-4 a 14.072974,14.072974 0 0 0 -0.363601,3.12168 14.072974,14.072974 0 0 0 14.07326,14.07267 14.072974,14.072974 0 0 0 14.072667,-14.07267 14.072974,14.072974 0 0 0 -0.41981,-3.35072 l 0.0185,0 -0.0491,-0.13694 a 14.072974,14.072974 0 0 0 -0.86653,-2.41722 L 92.943177,171.42099 Z" id="path12847" style="color:#000000;display:inline;overflow:visible;visibility:visible;opacity:1;fill:#64c5ff;fill-opacity:1;stroke:#64c5ff;stroke-width:16.63045883;stroke-linecap:round;stroke-linejoin:round;stroke-miterlimit:4;stroke-dasharray:none;stroke-dashoffset:0;stroke-opacity:1;marker:none;enable-background:accumulate"/><path d="m 160.39368,185.59997 -13.38371,35.8727 a 14.403749,14.403749 0 0 0 -0.67573,1.81053 l -0.33113,0.88751 0.10464,-6.1e-4 a 14.403749,14.403749 0 0 0 -0.37214,3.19505 14.403749,14.403749 0 0 0 14.40405,14.40344 14.403749,14.403749 0 0 0 14.40344,-14.40344 14.403749,14.403749 0 0 0 -0.42969,-3.42948 l 0.019,0 -0.0502,-0.14015 a 14.403749,14.403749 0 0 0 -0.8869,-2.47404 L 160.3937,185.59997 Z" id="path12847-6" style="color:#000000;display:inline;overflow:visible;visibility:visible;opacity:1;fill:#64c5ff;fill-opacity:1;stroke:#64c5ff;stroke-width:17.02134514;stroke-linecap:round;stroke-linejoin:round;stroke-miterlimit:4;stroke-dasharray:none;stroke-dashoffset:0;stroke-opacity:1;marker:none;enable-background:accumulate"/></g></g></svg>